<svg xmlns="http://www.w3.org/2000/svg" viewBox="0 0 120 120" width="512" height="512" role="img" aria-label="State Line icon tile"><rect x="2" y="2" width="116" height="116" rx="28" fill="#002A86"/>
<g transform="translate(60 60) scale(.74) translate(-60 -60)"><g transform="translate(5 19.5) scale(1.1)">
<path d="M7.6 1.7L20 3.4L22.3 11.1L41.8 12L53.9 9.9L65 6.5L69 5.1L94.4 5.1L96.8 8.6L99.3 17.2L96.8 25.7L93.1 32.6L93 39.4L93 73.7L0 73.7L0.1 59.3L3.3 50L5.7 39.4L6.2 28.6L7.4 13.7Z" fill="#FFEA0F" stroke="#FFEA0F" stroke-width="3" stroke-linejoin="round"/>
<path d="M34.4 46C38.5 42.5 41 40.5 40.6 35.5S42.4 29 41.8 24.5S44.2 18 45.1 11.6" fill="none" stroke="#002A86" stroke-width="3.4" stroke-linecap="round"/>
<circle cx="41.9" cy="28.6" r="6.6" fill="#FFEA0F" stroke="#002A86" stroke-width="2.2"/>
<circle cx="41.9" cy="28.6" r="2.9" fill="#002A86"/>
</g></g></svg>
